<svg xmlns="http://www.w3.org/2000/svg" width="94" height="102" fill="none"><path stroke="#fff" stroke-width="3" d="M92.002 15.666v51.411c0 7.184-3.198 14.005-9.022 18.269-4.555 3.334-10.173 7.187-15.543 10.176-2.685 1.495-5.288 2.763-7.65 3.642-2.377.887-4.433 1.347-6.05 1.304-1.62-.044-3.669-.566-6.027-1.482-2.341-.91-4.921-2.18-7.581-3.659-5.32-2.958-10.894-6.712-15.447-9.973-5.967-4.271-9.268-11.188-9.268-18.488v-51.2c0-3.624 2.073-6.858 5.456-8.053C27.598 5.235 39.39 2 53.708 2s26.11 3.235 32.838 5.613c3.383 1.195 5.456 4.429 5.456 8.053Z"/><path fill="#fff" fill-rule="evenodd" d="M39.481 83.34c.21.021.395.056.41.074.016.016.065.027.113.027.102 0 .118-.049.189-.608.03-.24.071-.54.094-.664.019-.125.057-.398.08-.608.021-.208.052-.388.067-.399.016-.01.045-.19.068-.398.022-.21.06-.483.08-.608s.067-.44.097-.703l.09-.69.023-.183a1.4 1.4 0 0 1 .057-.285c.014-.042.048-.24.074-.436.124-1.004.155-1.216.189-1.425.06-.33.142-.968.192-1.405.022-.21.052-.415.071-.456q.038-.11.053-.227.016-.151.038-.301l.038-.288.016-.13c.026-.207.054-.422.063-.516l.018-.21-.158-.044a3 3 0 0 0-.482-.073 1.7 1.7 0 0 1-.358-.053c-.033-.022-.158-.045-.62-.099a7 7 0 0 0-.264-.033c-.125-.02-.14-.009-.32.234a13 13 0 0 1-.422.528 2 2 0 0 0-.237.304.8.8 0 0 1-.121.164c-.12.136-.166.19-.472.585l-.085.108c-.089.111-.209.263-.31.385-.342.417-.367.45-.532.66l-.025.032-.402.493a2.4 2.4 0 0 0-.238.304.8.8 0 0 1-.12.166q-.133.15-.256.309l-.132.166q-.256.315-.508.636-.17.215-.347.424a.6.6 0 0 0-.106.138c-.003.037-.26.321-.274.307a6 6 0 0 1-.14-.343 6 6 0 0 0-.195-.447.6.6 0 0 1-.068-.163c0-.038-.056-.175-.245-.586a2 2 0 0 1-.113-.31c-.01-.069-.037-.126-.05-.126-.015 0-.06-.091-.097-.197-.037-.111-.11-.286-.154-.392a5 5 0 0 1-.163-.38c-.04-.102-.12-.288-.172-.406a1.6 1.6 0 0 1-.099-.255.8.8 0 0 0-.071-.181 8 8 0 0 1-.324-.752 3 3 0 0 0-.173-.376.2.2 0 0 1-.034-.106.9.9 0 0 0-.09-.252 4.4 4.4 0 0 1-.245-.558 3 3 0 0 0-.132-.303.6.6 0 0 1-.06-.156c0-.022-.049-.14-.106-.266a7 7 0 0 1-.153-.35l-.005-.007a1 1 0 0 0-.071-.16c-.01-.015-.159-.045-.325-.068a19 19 0 0 1-.507-.08 16 16 0 0 0-.565-.077 3 3 0 0 1-.415-.067.3.3 0 0 0-.131-.022c-.076 0-.1.071-.154.568a32 32 0 0 1-.167 1.254c-.041.232-.11.698-.207 1.424q-.042.314-.094.627-.05.312-.082.626c-.022.221-.053.407-.068.418s-.046.19-.069.398c-.021.21-.06.49-.082.628a8 8 0 0 0-.113.892 3 3 0 0 1-.075.493q-.04.121-.053.248a66 66 0 0 1-.286 2.032c-.06.356-.11.721-.113.82 0 .121.03.132.564.209.22.03.49.072.604.09.112.02.342.055.508.074l.202.026.22.03c.112.015.124.008.161-.122a1.6 1.6 0 0 0 .038-.3c0-.087.015-.166.033-.178.019-.01.046-.19.06-.391.016-.206.039-.387.053-.41.011-.02.042-.21.068-.419.027-.207.065-.49.088-.626.022-.137.064-.425.09-.646.03-.22.056-.398.06-.398s.033-.171.06-.38q.041-.323.09-.645c.046-.301.056-.384.113-.893.022-.198.069-.452.1-.566l.062-.201.083.239c.045.132.128.338.177.452.053.114.151.346.219.512.067.168.14.32.158.343q.028.043.03.094c0 .03.026.11.06.171.034.065.09.194.128.288.064.16.12.29.285.661.028.066.08.194.114.297.033.1.08.179.095.179.018 0 .033.027.033.06 0 .03.035.13.072.217l.015.037c.047.106.139.318.214.502.088.21.204.49.264.626.056.138.128.312.154.392.026.076.06.14.072.14.015 0 .044.069.067.149.057.182.068.185.706.254.147.016.29.042.326.056.045.027.095-.003.192-.11.257-.269.441-.489.441-.52 0-.014.118-.166.264-.337.143-.167.328-.388.403-.487l.136-.166.12-.145c.064-.072.188-.228.283-.35q.373-.466.753-.926c.052-.067.128-.16.194-.24l.07-.083c.07-.088.26-.319.414-.512.153-.194.346-.43.425-.52a.8.8 0 0 0 .14-.206c0-.019.018-.034.041-.034.044 0 .033.167-.038.588a27 27 0 0 0-.169 1.253l-.009.063a8 8 0 0 1-.051.355c-.022.149-.06.437-.084.646a3 3 0 0 1-.06.437c-.01.03-.04.228-.068.436a28 28 0 0 1-.082.586l-.005.022c-.018.107-.051.339-.08.553l-.017.111-.034.26c-.099.73-.12.907-.06.946.02.013.049.012.086.01h.039c.086 0 .266.02.402.042l.452.076c.113.019.38.056.592.083m15.863.254c-.008-.73-.215-6.145-.276-7.122-.015-.269-.098-2.756-.098-3.023 0-.103.464-.137 3.24-.22a37 37 0 0 0 1.675-.08c.206-.018.91-.045 1.562-.06.653-.011 1.25-.035 1.33-.053q.07-.016.14-.022c.033.139.056.705.056 1.275v.741l-.508.003c-.516.008-2.414.072-3.032.106-.185.011-.701.031-1.14.046l-.8.022.022.939c.012.513.039 1.025.057 1.14.019.113.034.33.034.478v.266l.652-.008c.354-.008.767-.03.911-.049q.735-.051 1.47-.057c.662-.011 1.328-.042 1.48-.064.21-.031.284-.031.32.003q.044.046.07.832c.016.432.038.866.053.969.022.174.022.178-.083.182-.054 0-.296.006-.564.012l-.09.002c-.302.005-.912.032-1.356.054a273 273 0 0 1-2.637.114l-.131.004.01.748c.005.413.023.862.047.999.018.137.043.675.056 1.204l.018.957-.308-.011q-.251-.01-.501.019c-.102.015-.523.033-.935.04l-.741.012zm-2.535.467c-.015-.02-.38-.038-.81-.05-.663-.018-.795-.03-.847-.087-.033-.033-.06-.072-.06-.084a.8.8 0 0 0-.072-.284c-.022-.016-.079-.167-.328-.893l-.03-.083a4 4 0 0 0-.087-.229.7.7 0 0 1-.048-.16.6.6 0 0 0-.072-.165 1 1 0 0 1-.094-.248l-.026-.118-.61-.019q-1.21-.044-2.418-.114a27 27 0 0 0-.525-.022l-.519-.019-.855-.026-.04.151c-.023.088-.057.167-.076.178-.022.011-.038.058-.038.1 0 .037-.015.072-.032.072-.02 0-.05.037-.066.087-.025.083-.23.539-.425.957l-.105.221c-.044.093-.088.19-.125.266-.082.177-.135.246-.165.223-.035-.03-2.023-.106-2.365-.09-.099.003-.147-.046-.076-.077.034-.011.271-.501.271-.559a.06.06 0 0 1 .03-.048c.027-.011.396-.752 1.797-3.608l.107-.222c.21-.436.373-.772.375-.785a4 4 0 0 1 .159-.315c.082-.16.172-.339.198-.398.027-.067.535-1.099 1.13-2.299.923-1.861 1.097-2.183 1.157-2.172.04.008.576.03 1.186.05.674.022 1.126.053 1.156.08.026.021.049.063.049.093s.026.114.056.187l.027.063c.029.069.064.15.086.21l.019.04c.03.067.06.137.076.166a.3.3 0 0 1 .038.11c0 .022.026.1.055.17.14.32.211.505.226.586.005.03.132.31.192.425q.042.075.053.16c0 .032.05.166.11.299.12.266.418 1.018.418 1.06 0 .015.049.132.11.265.055.133.153.37.21.524q.057.165.131.323c.016.023.065.149.113.286.05.136.102.262.121.284q.03.043.03.095a1 1 0 0 0 .075.21q.048.092.076.193c0 .022.022.092.053.152.063.129.147.327.15.365a.13.13 0 0 0 .034.052.1.1 0 0 1 .026.077c0 .026.053.159.113.292.065.137.113.265.113.285 0 .022.068.201.147.395.245.596.403.988.494 1.239.045.128.102.245.116.257.019.012.034.05.034.084s.022.11.053.163c.026.053.06.144.075.21a.5.5 0 0 0 .053.127c.015.012.068.145.12.297.053.156.106.289.121.3.019.007.03.05.03.092 0 .037.02.071.038.071.022 0 .037.027.037.061 0 .058.076.255.154.407.02.038.027.083.015.102-.026.045-.857.054-.899.012m-3.205-4.37a9 9 0 0 1-.102-.295 7 7 0 0 0-.124-.342 6 6 0 0 1-.131-.36 7 7 0 0 0-.132-.361 3 3 0 0 1-.099-.266 1 1 0 0 0-.079-.187.2.2 0 0 1-.03-.09.6.6 0 0 0-.053-.172c-.025-.068-.079-.204-.116-.31a15 15 0 0 0-.279-.742 1 1 0 0 1-.075-.254c-.027-.11-.064-.201-.083-.201-.018 0-.034-.031-.034-.064a.8.8 0 0 0-.068-.217l-.063-.149-.113.205a5 5 0 0 0-.2.434 1.2 1.2 0 0 1-.113.246.9.9 0 0 0-.113.222l-.05.112c-.053.12-.123.28-.183.41a3 3 0 0 0-.15.361c0 .02-.012.035-.027.035-.02 0-.06.08-.102.182-.038.1-.143.334-.23.52a30 30 0 0 0-.279.608q-.09.208-.192.41a2 2 0 0 0-.075.16c0 .019.632.053 1.458.087.395.015.734.038.75.057.014.015.27.026.57.026.502 0 .544-.003.516-.064m15.75 3.475a16 16 0 0 0-.066-.657 21 21 0 0 1-.055-.57 55 55 0 0 0-.17-1.802 84 84 0 0 1-.189-1.976 21 21 0 0 0-.056-.608 31 31 0 0 1-.17-1.67c-.045-.513-.098-1.049-.113-1.197-.014-.11-.035-.307-.054-.487l-.017-.159c-.022-.209-.05-.456-.057-.55l-.019-.169-.026-.234c-.015-.129-.01-.244.011-.255q.25-.039.501-.048c.26-.011.49-.04.51-.053.032-.027.454-.07.903-.092a4 4 0 0 0 .368-.041l.178-.031.003.28c0 .157.02.427.038.605l.047.409v.002l.025.216c.019.166.06.577.09.911.102 1.086.178 1.853.21 2.146.02.155.06.559.092.893l.013.135c.104 1.103.164 1.743.202 2.067.022.19.044.437.052.55.014.191.056.628.11 1.178.06.608.096.945.12 1.075.018.103.01.14-.027.144a.7.7 0 0 0-.128.023c-.101.026-.508.076-1.261.144-.233.024-.48.047-.653.063l-.183.017-.212.022-.017-.28Zm4.175-.618q-.046.26-.143.506c-.012.036-.02.057-.01.07.01.017.057.011.175-.002.257-.026.419-.05.653-.095.451-.09.647-.121.783-.121.075.004.139-.012.139-.03 0-.016.12-.042.27-.058.148-.011.306-.033.352-.044.079-.02.169-.2.169-.332 0-.038.015-.094.037-.133q.051-.133.072-.273.078-.432.192-.855.056-.197.093-.398c.053-.27.067-.376.128-.426.044-.036.114-.043.241-.064q.232-.035.46-.084.61-.113 1.225-.2c.195-.031.391-.062.433-.073a8 8 0 0 1 .903-.16c.23-.03.508-.072.621-.095a9 9 0 0 1 .565-.087l.359-.046.458.737c.257.403.464.744.464.752 0 .011.037.072.087.137.11.16.169.258.2.338.032.092.082.103.334.06a4 4 0 0 1 .357-.048 1 1 0 0 0 .132-.02c0-.011.588-.098.886-.136a.8.8 0 0 0 .206-.053c.039-.031.611-.1.675-.084.019.008.022-.016.01-.042q-.27-.465-.586-.9c-.02-.01-.041-.057-.057-.102-.015-.05-.045-.089-.064-.089-.018 0-.034-.017-.034-.037a.9.9 0 0 0-.216-.314.1.1 0 0 1-.01-.027c0-.05-.2-.343-.233-.343-.015 0-.03-.022-.03-.053 0-.027-.027-.072-.057-.098-.033-.027-.05-.057-.041-.07.01-.007-.038-.087-.106-.174a1.3 1.3 0 0 1-.147-.212 1.1 1.1 0 0 0-.184-.277 1 1 0 0 1-.124-.202.4.4 0 0 0-.088-.136 1 1 0 0 1-.131-.19c-.056-.103-.12-.183-.135-.183-.019 0-.045-.04-.057-.094-.014-.054-.04-.095-.06-.095a.04.04 0 0 1-.027-.011.04.04 0 0 1-.01-.028c0-.044-.154-.276-.196-.295-.02-.008-.03-.031-.03-.05a1.1 1.1 0 0 0-.148-.254 29 29 0 0 1-.365-.559l-.13-.194-.11-.165a35 35 0 0 1-.528-.797 67 67 0 0 0-.523-.793l-.015-.023a18 18 0 0 1-.29-.437 20 20 0 0 0-.301-.456l-.198-.306-.198-.31q-.32-.495-.667-.972c-.019-.007-.03-.03-.03-.053 0-.019-.06-.128-.136-.243-.102-.155-.153-.2-.2-.182a3 3 0 0 1-.398.076q-.274.039-.547.091l-.319.061c-.396.064-.614.095-.705.095a.8.8 0 0 0-.23.053c-.105.041-.13.083-.188.273a12 12 0 0 0-.203.896c-.01.058-.034.114-.052.126-.019.011-.034.057-.034.107 0 .045-.011.098-.027.114-.018.015-.05.125-.075.243q-.082.405-.196.804l-.057.229q-.048.28-.131.55a2.5 2.5 0 0 0-.14.513.8.8 0 0 1-.052.209 1 1 0 0 0-.057.236c-.014.11-.04.207-.06.223-.02.011-.033.06-.033.11s-.02.103-.042.115c-.022.015-.03.053-.019.083a.11.11 0 0 1-.01.102.8.8 0 0 0-.058.175c-.05.266-.094.456-.136.551a1 1 0 0 0-.056.19l-.041.17-.015.06q-.074.302-.14.605a.4.4 0 0 1-.053.152 1 1 0 0 0-.056.24c-.01.106-.041.197-.064.197s-.03.007-.019.019c.019.018-.037.285-.128.588-.019.073-.06.236-.09.362q-.03.133-.068.265l-.014.067-.023.105q-.024.106-.058.208c-.055.129-.146.52-.176.733-.011.106-.038.198-.057.198s-.033.049-.033.11c0 .065-.015.122-.035.133-.019.015-.044.113-.06.224a1 1 0 0 1-.056.235.7.7 0 0 0-.053.19m4.817-4.447a14 14 0 0 0-1.037.175 3 3 0 0 1-.296.056c-.148.019-.163.016-.136-.045a.7.7 0 0 0 .038-.144c.01-.08.063-.285.131-.532q.055-.208.099-.418l.064-.304q.028-.114.043-.228a1 1 0 0 1 .058-.228q.076-.206.087-.425c0-.026.011-.05.025-.05.016 0 .039-.106.053-.232a.9.9 0 0 1 .057-.276.5.5 0 0 0 .053-.155c.09-.445.131-.646.14-.646.007 0 .014-.042.021-.095.03-.233.077-.395.114-.407.026-.008.098.077.161.186.12.21.14.238.337.546l.017.028c.076.121.14.232.14.243s.037.076.088.14c.048.064.229.35.402.63.169.282.338.543.373.586.033.038.052.072.044.075q.047.113.117.214c.049.073.137.214.23.364l.154.243.252.398-.142.011a1 1 0 0 0-.2.035q-.194.055-.395.072a10 10 0 0 0-.527.091 12 12 0 0 1-.565.092" clip-rule="evenodd"/><path fill="#fff" d="M18.732 67.476c-.01-.019.004-.094.035-.164.037-.093.102-.153.223-.212.16-.075.568-.324.778-.473.106-.078.346-.256.402-.301q.158-.112.323-.212.155-.097.303-.204a.8.8 0 0 1 .144-.094c.064-.04.121-.085.121-.1 0-.016.019-.03.042-.03s.061-.022.09-.044c.047-.046.513-.37.656-.459.035-.018.186-.125.335-.229.152-.11.288-.198.3-.198.022 0 .314-.216.36-.264.011-.01.08-.056.155-.1.073-.045.186-.124.247-.175.175-.149.202-.168.239-.168.023 0 .076-.038.125-.082q.122-.108.258-.197c.096-.06.179-.122.19-.134.01-.012.163-.12.342-.238.178-.12.34-.238.36-.265a4 4 0 0 1 .227-.167c.107-.066.196-.133.2-.153a.07.07 0 0 1 .054-.03.4.4 0 0 0 .145-.081c.056-.048.152-.12.212-.16q.102-.074.2-.152a2 2 0 0 1 .243-.16c.08-.048.164-.105.19-.127.091-.085.288-.211.326-.211.022 0 .053-.022.068-.049.043-.063.3-.25.346-.25.023 0 .046-.014.053-.029.011-.026.448-.339.69-.492.049-.029.258-.167.463-.3a8 8 0 0 1 .413-.256.7.7 0 0 0 .14-.08.4.4 0 0 1 .126-.07c.06 0 1.141-.662 1.279-.781l.143-.131-.061-.166a1.3 1.3 0 0 1-.057-.402c.008-.306-.03-.492-.094-.492a.055.055 0 0 1-.053-.055c0-.03-.034-.085-.077-.12-.04-.036-.075-.078-.075-.092a1.4 1.4 0 0 0-.133-.235c-.076-.115-.125-.223-.113-.241.01-.019.003-.042-.02-.056-.022-.015-.037-.197-.037-.436 0-.397.041-.646.178-1.034.03-.093.06-.181.064-.204a.2.2 0 0 1 .03-.075q.033-.087.05-.179c.016-.074.042-.137.06-.137.019 0 .034-.025.034-.055s.016-.086.035-.123a5 5 0 0 0 .151-.295c.278-.557.665-1.168.858-1.346.238-.224.569-.338.959-.338q.17-.008.334.03a.6.6 0 0 1 .103.155c.06.138.079.212.159.726.015.081.035.174.049.205.01.03.042.175.069.317.026.144.064.345.09.445.05.212.186.93.217 1.154.01.081.038.171.06.196.061.075.057 1.169-.003 1.19-.022.008-.046.053-.046.101 0 .05-.019.1-.038.111-.018.011-.038.05-.038.08 0 .078.11.04.413-.139.134-.078.3-.156.372-.167.069-.01.126-.033.126-.049 0-.015.09-.054.2-.096.107-.037.285-.111.388-.167.163-.09.367-.164.918-.339q.159-.04.321-.055a1.5 1.5 0 0 0 .296-.057c.266-.096 4.017-.189 4.514-.111.137.021.69.055 1.233.078 2.036.082 2.1.09 2.412.238.277.134.39.16.429.1.01-.018.068-.044.12-.055.055-.015.172-.06.26-.097.162-.074.91-.334 1.008-.353q.068-.015.132-.038l.126-.04a.1.1 0 0 0 .06-.06q.07-.261.183-.506c.095-.201.371-.472.542-.532.072-.026.133-.063.133-.078s.019-.03.037-.03c.054 0 .536-.23.623-.297.262-.201 1.065-.986 1.24-1.21.05-.06.148-.17.224-.248.186-.18.266-.306.266-.413 0-.131.47-.552.947-.846.307-.188.467-.323.755-.632.2-.212.53-.554.732-.762.201-.205.406-.42.456-.484a3 3 0 0 1 .23-.25c.077-.077.141-.166.141-.196s.019-.056.038-.056c.076 0 .038-.108-.045-.13a1 1 0 0 1-.209-.115.6.6 0 0 0-.164-.09c-.022 0-.048-.026-.06-.055-.015-.03-.042-.056-.06-.056-.035 0-.315-.168-.569-.339a.4.4 0 0 0-.142-.07c-.018 0-.04-.027-.055-.056-.011-.03-.039-.056-.062-.056s-.144-.067-.269-.149a1.4 1.4 0 0 0-.265-.15c-.019 0-.034-.013-.034-.036 0-.019-.042-.044-.092-.06-.052-.01-.101-.044-.114-.074a.09.09 0 0 0-.078-.052c-.03 0-.058-.015-.058-.037 0-.019-.019-.037-.042-.037a.9.9 0 0 1-.212-.112 1 1 0 0 0-.204-.111q-.008 0-.014-.002a.03.03 0 0 1-.021-.032c0-.019-.033-.048-.076-.06a.7.7 0 0 1-.178-.115c-.076-.067-.14-.09-.28-.09-.1 0-.194.02-.205.038-.015.022-.069.037-.126.033a6 6 0 0 0-.398.027c-.288.025-.295.022-.405-.079-.066-.059-.114-.13-.114-.156 0-.122-.13-.196-.345-.196-.21 0-.224-.008-.35-.15a1.1 1.1 0 0 1-.178-.317c-.042-.144-.065-.17-.186-.204a1 1 0 0 0-.201-.037c-.125 0-.284-.181-.409-.472-.069-.16-.186-.424-.266-.587a6 6 0 0 1-.17-.38c-.011-.049-.046-.086-.072-.086q-.077 0-.573.283a4 4 0 0 1-.35.178c-.09.042-.163.085-.163.105 0 .014-.026.03-.057.03-.03 0-.189.066-.348.148q-.244.127-.5.223-.12.039-.228.105a1 1 0 0 1-.232.111 6 6 0 0 0-.405.172c-.11.05-.217.096-.235.096-.034 0-.505.216-.695.32-.06.03-.106.044-.106.032 0-.01-.065.01-.14.05-.08.041-.205.097-.277.13-.197.081-.656.287-.722.32a1 1 0 0 1-.181.06c-.068.01-.121.037-.121.05 0 .02-.08.061-.179.098-.17.063-.53.223-1.058.47a2 2 0 0 1-.262.107c-.019 0-.17.066-.337.145-.171.078-.382.175-.479.212a1 1 0 0 0-.189.093 1 1 0 0 1-.216.103c-.11.042-.338.142-.511.22-.438.201-.615.284-.638.29l-.103.033c-.049.016-.087.042-.087.053 0 .037-.045.044-.284.052-.19.008-.19.008-.274-.16-.178-.353-.098-.531.387-.893l.334-.252.235-.175c.043-.034.13-.098.193-.15a.7.7 0 0 1 .145-.092c.023 0 .455-.317.546-.398a.18.18 0 0 1 .103-.049c.026 0 .057-.025.072-.055.011-.03.042-.056.071-.056.027 0 .092-.04.141-.093.05-.053.11-.093.14-.093.027 0 .05-.01.05-.03 0-.015.034-.044.071-.063q.29-.173.562-.371c.026-.02.072-.06.103-.083a.2.2 0 0 1 .098-.048c.022 0 .06-.019.088-.037.193-.16.276-.224.364-.268a5 5 0 0 0 .356-.224c.14-.1.266-.178.277-.178.02 0 .311-.205.42-.298a.2.2 0 0 1 .103-.037c.03 0 .062-.011.07-.026a1.2 1.2 0 0 1 .313-.234c.023 0 .255-.153.284-.19.012-.011.107-.067.21-.122q.126-.07.246-.15c.053-.044.402-.25.892-.524a6.6 6.6 0 0 1 .978-.45c.531-.183.591-.201.774-.238q.263-.051.524-.116c.196-.048.356-.089.682-.164.147-.033.284-.062.303-.07.022-.008.106-.026.194-.041.306-.052.322-.086.333-.656.008-.374.022-.527.07-.612.067-.124.15-.201.227-.217q.104-.029.2-.077a1.6 1.6 0 0 1 .417-.09c.262-.022.266-.022.35-.171a.8.8 0 0 0 .083-.197c.003-.03.068-.179.144-.335.08-.156.14-.301.145-.323 0-.042.101-.268.193-.436a.4.4 0 0 0 .053-.145c0-.026.034-.115.072-.197l.224-.47.269-.568c.212-.454.49-.658.896-.658.223 0 .254.022.337.26.064.179.083.762.026.797-.015.011-.042.092-.053.178-.03.201-.041.264-.068.308a.7.7 0 0 0-.05.145 2.2 2.2 0 0 1-.227.503.3.3 0 0 0-.046.1.8.8 0 0 1-.068.167.6.6 0 0 0-.06.172c0 .026-.012.048-.03.048-.016 0-.07.116-.118.26-.05.146-.106.26-.126.26-.015 0-.03.023-.03.049 0 .05-.224.584-.319.767q-.07.15-.136.301l-.125.306c-.023.054-.03.114-.015.13.015.015.382.003.815-.026.857-.056 1.904-.06 5.048-.019 1.408.019 2.068.014 2.087-.01.03-.05 1.726-.08 1.855-.035.098.037.076.1-.035.1-.038 0-.073.015-.073.033 0 .016-.078.06-.178.098a2 2 0 0 0-.218.092.8.8 0 0 1-.198.056c-.092.016-.164.037-.164.056 0 .03-.163.07-.36.093a.8.8 0 0 0-.17.03c-.072.026-.52.07-.835.085q-.419.019-.834.049-1.785.127-3.574.105a31 31 0 0 0-1.293-.005c-.008.008.046.138.118.287.072.145.151.328.178.398.027.074.084.197.13.278a.71.71 0 0 1 .018.6 2.2 2.2 0 0 1-.269.357c-.197.212-.205.23-.141.279q.056.04.126.049a.3.3 0 0 1 .14.065c.072.057.118.131.247.388.044.09.041.243-.005.272-.037.022.11.167.17.167.012 0 .085.044.157.097.072.055.13.085.13.075 0-.016.09.029.196.1.11.066.295.17.41.226.253.127.444.224.74.394.124.071.303.164.398.213.196.1.322.17.599.339.109.062.22.119.247.119.064-.004.175-.1.348-.317a4 4 0 0 1 .232-.26.7.7 0 0 0 .223-.387c.026-.197.197-.487.38-.64.167-.141.303-.227.55-.35q.21-.099.406-.226a.6.6 0 0 1 .15-.09c.02 0 .058-.032.088-.078.03-.04.137-.142.235-.219.19-.15.873-.76 1.17-1.042.094-.093.253-.234.352-.313.224-.178.269-.257.216-.357l-.076-.149a.3.3 0 0 1-.039-.13c0-.074.137-.341.183-.36.038-.011.152-.097.48-.354.116-.09.222-.16.241-.16.015 0 .068-.036.113-.086.043-.043.209-.142.365-.212.158-.07.292-.145.3-.167.021-.052-.057-.554-.088-.576-.015-.011-.046-.135-.069-.28a7 7 0 0 0-.12-.65 3 3 0 0 1-.076-.465 42 42 0 0 0-.19-1.37c-.042-.305-.076-.352-.27-.382-.102-.02-.147-.046-.147-.086a2.4 2.4 0 0 0-.152-.492.9.9 0 0 1-.057-.241 1 1 0 0 0-.057-.22.6.6 0 0 1-.057-.13.9.9 0 0 0-.118-.219c-.08-.116-.083-.138-.033-.19.072-.078.072-.238.003-.495a3 3 0 0 1-.079-.457 1 1 0 0 0-.057-.294c-.03-.04-.069-.223-.098-.51-.02-.156-.012-.178.075-.234.083-.056.31-.138.536-.19.04-.01.15-.03.246-.037a1 1 0 0 0 .246-.053c.041-.018.185-.04.322-.054.266-.028.307-.03.79-.09.431-.055.503-.012.575.36.02.098.054.262.077.361.022.105.05.254.057.335.03.302.087.599.144.77.06.175.053.29-.02.29-.044 0-.018.414.046.763.088.458.088.614.011.696a.7.7 0 0 1-.163.122l-.095.048.038.354c.02.197.05.368.07.382a.5.5 0 0 1 .026.18q0 .216.117.766c.053.246.144.726.2 1.042.028.153.057.306.07.334.03.076.072.295.076.402 0 .075.014.085.131.075.13-.011.141-.022.247-.29.061-.153.141-.372.183-.484.037-.111.12-.346.186-.513.06-.172.101-.335.094-.36-.011-.027-.004-.06.02-.076.021-.01.04-.07.04-.13s.02-.119.04-.13c.021-.015.029-.055.018-.093-.011-.037-.005-.078.018-.092.02-.011.038-.071.038-.131s.016-.115.039-.13c.018-.011.045-.12.06-.242.015-.123.038-.224.053-.224.016 0 .042-.107.057-.241.011-.134.042-.241.06-.241.019 0 .035-.05.035-.11 0-.062.016-.118.038-.133.02-.01.045-.119.06-.241.016-.124.042-.224.06-.224.024 0 .032-.022.02-.048-.015-.044.035-.271.096-.435.041-.112.101-.36.143-.595.041-.246.098-.459.153-.558.014-.034.04-.149.056-.261q.012-.123.053-.242c.019-.032.083-.29.144-.595a.4.4 0 0 1 .057-.156.11.11 0 0 0 .019-.105c-.015-.03-.008-.062.01-.074.024-.014.04-.082.04-.153s.01-.126.03-.126c.015 0 .03-.037.034-.081.007-.116.049-.295.087-.383.019-.041.046-.123.06-.187.016-.06.03-.12.035-.13.003-.011.019-.086.033-.168a2 2 0 0 1 .05-.204.2.2 0 0 0 .016-.104.12.12 0 0 1 .03-.093c.042-.052.068-.848.026-.911a.1.1 0 0 0-.08-.044c-.026 0-.113-.06-.193-.131-.136-.127-.144-.142-.14-.372 0-.15.022-.265.053-.305.03-.033.049-.071.046-.082-.019-.044.038-.306.067-.324.02-.01.035-.055.035-.1 0-.09.114-.339.205-.447.057-.07.382-.145.63-.145.333 0 .743.108.864.22.026.026.061.048.077.048a1 1 0 0 1 .166.123c.213.19.314.484.224.65a2.5 2.5 0 0 0-.122.417c-.121.524-.307.745-.626.745q-.244 0-.243.104a.44.44 0 0 1-.094.178.5.5 0 0 0-.095.157c0 .018-.023.055-.053.077a.18.18 0 0 0-.057.109c-.003.142-.053.346-.083.364-.019.011-.034.066-.034.123 0 .055-.011.116-.027.13-.019.015-.057.175-.094.35a6 6 0 0 1-.108.472 7 7 0 0 0-.087.354 1 1 0 0 1-.071.241 1.4 1.4 0 0 0-.05.254c-.014.114-.042.223-.06.233-.019.011-.034.06-.034.112a.3.3 0 0 1-.039.156c-.034.06-.098.317-.129.529-.01.052-.034.156-.056.234l-.084.279a8 8 0 0 0-.095.365c-.026.126-.08.327-.113.446q-.055.201-.099.404a2 2 0 0 1-.072.263 2 2 0 0 0-.057.24.7.7 0 0 1-.049.205c-.027.037-.095.306-.213.838a3 3 0 0 1-.095.353c-.037.09-.102.417-.155.78-.019.146-.053.355-.072.47a2 2 0 0 0-.038.372.5.5 0 0 1-.035.216c-.03.048.028.294.103.434.022.042.07.138.103.22.034.082.102.235.152.335.215.443.254.64.17.852a.27.27 0 0 0-.004.183c.02.043.066.18.098.304.088.29.08.279.214.235.155-.052.337-.301.337-.462 0-.207.106-.42.223-.447.118-.021.27-.088.498-.222.337-.197.41-.235.428-.212.011.01.046.003.072-.011a.3.3 0 0 1 .088-.037c.022-.005.14-.026.265-.053.455-.093.452-.093.592.044.224.22.325.66.207.88-.03.054-.264.293-.522.527-.542.494-.85.8-1.192 1.187-.204.235-.242.297-.242.416 0 .11.023.16.114.232.084.07.114.125.114.211 0 .138-.308.77-.445.916-.049.054-.067.088-.037.077a3 3 0 0 1 .205-.048.8.8 0 0 0 .182-.048.3.3 0 0 1 .114-.026c.231-.019.527-.116 1.497-.5.221-.084.544-.203.722-.267q.22-.072.436-.16.1-.046.208-.07c.137-.026.497-.153.638-.223a.6.6 0 0 1 .197-.06c.041 0 .076-.015.076-.037 0-.019.026-.037.056-.037.043 0 .505-.172.987-.368.254-.105.713-.265.762-.265.03 0 .053-.015.053-.037 0-.018.034-.037.077-.037a1 1 0 0 0 .234-.053c.516-.163.838-.248.88-.234.03.01.069.004.084-.011.022-.022.11-.008.215.03.145.052.194.055.255.018a.8.8 0 0 1 .216-.081c.148-.034.402-.116 1.13-.354.231-.074.554-.171.721-.216a3 3 0 0 0 .368-.107.4.4 0 0 1 .17-.034c.088 0 .263-.052.657-.197.076-.026.425-.142.49-.16.04-.015.021-.048-.062-.138-.102-.103-.147-.182-.276-.491a1 1 0 0 1-.062-.205c-.01-.07-.032-.137-.049-.148a3 3 0 0 1-.132-.335 3 3 0 0 0-.16-.393c-.076-.12-.102-.426-.056-.597.064-.234.337-.568.614-.751l.129-.082-1.157.01c-1.047.012-2.014.072-2.162.132a.8.8 0 0 1-.17.03q-.272.01-.531.089-.177.06-.361.088-.552.158-1.12.257a1.4 1.4 0 0 0-.284.063c-.01.016-.12.038-.242.053q-.136.01-.265.056a.4.4 0 0 1-.156.052q-.255.053-.512.1l-.557.112a8 8 0 0 1-.656.127q-.23.03-.456.074-.255.053-.511.1-.484.086-.968.164l-.342.055c-.135.023-.321.052-.416.064a.8.8 0 0 0-.21.048c-.018.016-.185.03-.363.033-.315.009-.33.004-.41-.092a.4.4 0 0 1-.08-.15c0-.07.281-.204.508-.24.235-.038.736-.135.971-.187a7 7 0 0 1 .266-.052c.448-.078.724-.134.853-.171.083-.022.281-.064.438-.09.154-.025.284-.051.284-.054s.11-.031.246-.057.322-.071.417-.093q.198-.048.398-.085a1 1 0 0 0 .246-.064c.023-.026.088-.037.312-.063.098-.01.182-.037.182-.053 0-.018.042-.032.09-.032a.7.7 0 0 0 .198-.038 5 5 0 0 1 .394-.089c.418-.078.505-.1.588-.134q.102-.036.208-.052c.073-.01.175-.03.228-.038.438-.077.562-.104.627-.133q.091-.034.189-.053c.387-.063.937-.17 1.081-.207q.591-.145 1.195-.224c.167-.022.405-.056.53-.074.127-.019.426-.06.664-.09.24-.033.558-.074.71-.1l.269-.044.069-.209q.069-.207.076-.591c.003-.395.04-.525.182-.648a.24.24 0 0 1 .14-.067c.038 0 .08-.018.09-.037.016-.022.038-.03.057-.018.02.01.043.003.058-.019.01-.018.057-.037.098-.037.038 0 .073-.015.073-.033 0-.03.067-.049.337-.101a.3.3 0 0 1 .114.018c.364.172.413.209.462.328a.4.4 0 0 0 .06.122c.023 0 .153-.138.175-.189.072-.145.452-.666.486-.666.018 0 .034-.019.034-.042 0-.062.345-.468.443-.52.05-.026.088-.06.088-.075s.065-.065.144-.111a3 3 0 0 0 .186-.126c.026-.02.072-.06.103-.082a.2.2 0 0 1 .117-.049c.03 0 .056-.01.056-.03 0-.015.035-.043.073-.063.041-.022.19-.1.334-.182.759-.42 2.153-1.104 2.248-1.104.011 0 .046-.022.077-.05q.097-.068.208-.114c.084-.033.316-.138.512-.23.899-.418 1.074-.495 1.13-.495.022 0 .046-.011.054-.027a.4.4 0 0 1 .144-.092c.072-.034.296-.135.492-.227.198-.093.47-.22.608-.28.137-.06.36-.164.496-.226a3 3 0 0 1 .285-.116q.096-.029.185-.074a1 1 0 0 1 .217-.075c.035 0 .072-.015.084-.032.019-.03.254-.083.44-.094.133-.011.406.066.667.182.266.12.258.112.22.175a.3.3 0 0 0-.042.104c-.003.03-.026.06-.045.067a1 1 0 0 0-.156.112 6 6 0 0 1-.276.223c-.088.067-.292.222-.452.353-.16.127-.42.331-.58.454q-.231.178-.455.364a1 1 0 0 1-.186.138.4.4 0 0 0-.129.093c-.24.212-.417.354-.448.354-.018 0-.076.04-.129.093-.12.122-.895.73-1.001.788a.7.7 0 0 0-.137.112q-.085.09-.189.16-.105.076-.209.156c-.155.134-.437.353-.872.68-.247.186-.467.355-.49.372a3 3 0 0 1-.231.175l-.228.168c-.189.145-.322.235-.34.235a.8.8 0 0 0-.171.111.7.7 0 0 1-.175.112c-.015 0-.057.022-.087.052-.091.074-.652.357-.717.357a.4.4 0 0 0-.153.052c-.13.07-.594.245-.659.25-.026 0 .034.026.137.054.103.034.25.099.33.15a.7.7 0 0 0 .186.09c.022 0 .117.07.208.152.194.175.27.312.342.617.076.313.109.402.204.565.066.102.141.269.175.365.11.317.144.346.39.346.122 0 .236-.015.255-.033.022-.02.16-.041.303-.052q.2-.012.399-.042.285-.05.47.317c.182.357.121.61-.217.907-.322.287-.325.291-.61.432l-.27.135.008.27c.004.149.026.32.046.376a.37.37 0 0 1-.005.227c-.109.323-.155.376-.775.855-.355.273-.445.328-.547.328-.088 0-.201-.093-.604-.487l-.492-.492-.202.022c-.205.023-.443.12-.443.18 0 .018-.031.048-.066.06a.6.6 0 0 0-.155.11c-.05.049-.11.086-.14.086-.026 0-.057.011-.065.03a.6.6 0 0 1-.163.097c-.12.055-.262.074-.683.085q-.343.002-.682.057c-.293.077-.872.27-.892.297a.4.4 0 0 1-.132.052.7.7 0 0 0-.152.052.6.6 0 0 1-.147.052q-.136.037-.266.093c-.262.116-1.403.524-1.454.524-.025 0-.048.02-.048.038 0 .022-.03.037-.066.037a.6.6 0 0 0-.177.055.6.6 0 0 1-.148.057 7 7 0 0 0-.717.264.3.3 0 0 1-.106.033c-.022 0-.12.037-.22.078a3 3 0 0 1-.216.09q-.121.032-.236.082c-.038.01-.08.025-.094.025a.1.1 0 0 0-.053.034c-.015.015-.057.026-.095.026-.034 0-.072.011-.08.03-.003.015-.14.07-.295.123-.543.186-1.044.368-1.173.427q-.084.04-.17.071a1 1 0 0 0-.106.03c-.039.015-.099.037-.133.052-.038.01-.087.026-.11.03a2 2 0 0 0-.17.07q-.552.22-1.116.406c-.185.066-.345.13-.353.148-.007.016-.046.026-.08.026-.038 0-.08.011-.094.027a.1.1 0 0 1-.053.032c-.015 0-.057.016-.092.028l-.132.051c-.038.01-.077.026-.087.03a6 6 0 0 0-.285.112q-.159.063-.322.115a2 2 0 0 0-.247.09q-.11.054-.228.092a1.4 1.4 0 0 0-.223.097.2.2 0 0 1-.102.033 1.3 1.3 0 0 0-.284.097q-.195.084-.395.153a5 5 0 0 0-.547.215 1 1 0 0 1-.16.056c-.014 0-.158.048-.314.108a14 14 0 0 1-.46.172l-.165.066a2 2 0 0 1-.164.064 1 1 0 0 0-.136.048c-.334.142-.933.357-1.051.38a1 1 0 0 0-.19.059 3 3 0 0 1-.178.078c-.155.06-.155.082 0 .146q.084.032.16.077c.542.424 1.232 1.053 1.232 1.127 0 .016.053.09.114.164.205.238.293.376.482.755.251.502.247.494.265 1.838l.019 1.234.136.273.141.275.437-.004c.462-.003 1.558-.104 1.781-.164a1.2 1.2 0 0 1 .293-.037c.088 0 .166-.014.178-.033.011-.015.179-.041.372-.056a7 7 0 0 0 .524-.06c.095-.021.47-.055.834-.078s.869-.055 1.119-.075c.25-.014.85-.048 1.327-.07.48-.021.96-.055 1.062-.075.107-.018.481-.051.834-.07a32 32 0 0 0 1.044-.078 87 87 0 0 1 1.99-.17c.107-.008.388-.031.627-.053.24-.022.743-.063 1.118-.093.908-.07 1.385-.123 1.491-.168.183-.078.304-.025.183.075a.22.22 0 0 0-.069.123c-.01.081-.068.115-.736.45-.345.174-.477.216-.721.248a7 7 0 0 0-.375.053c-.041.008-.194.033-.341.056-.144.021-.36.06-.474.082a5 5 0 0 1-.38.048.8.8 0 0 0-.17.018c0 .005-.186.034-.418.06q-.333.039-.663.09a16 16 0 0 1-.986.13c-.175.01-1.112.108-1.65.167-1.074.12-4.408.346-5.171.35-.23.004-.424.015-.424.032s-.077.028-.17.028c-.096 0-.171.01-.171.026 0 .014.034.096.076.185.166.353.223.492.345.848.072.205.136.38.148.39.011.012.053.121.094.239.085.249.092.558.016.737-.073.175-.303.52-.403.599s-.113.137-.03.137c.098 0 .284.112.284.167 0 .03.016.056.035.056s.046.071.061.16c.014.086.053.202.079.257.065.12.069.334.01.391q-.042.043 0 .063c.025.015.043.075.043.137 0 .06.019.11.039.11.022 0 .037.032.037.07 0 .04.015.081.035.096.022.011.049.097.064.186.011.093.038.178.057.19.045.025.042.535-.004.535-.019 0-.038.026-.038.06 0 .081-.167.353-.292.469-.102.096-.178.119-.66.218-.236.05-1.366.005-1.426-.054-.01-.011-.072-.022-.129-.022a1.6 1.6 0 0 1-.327-.06 3 3 0 0 0-.617-.057c-.456 0-.6-.048-.68-.234a21 21 0 0 1-.185-.439c-.03-.074-.065-.097-.121-.085-.115.022-.608-.07-.744-.142a.5.5 0 0 1-.262-.36c-.034-.149-.072-.186-.216-.186-.06 0-.106-.015-.106-.038 0-.019-.034-.037-.077-.037-.143 0-.435-.339-.549-.636-.06-.153-.12-.278-.14-.286-.016-.008-.03-.045-.03-.082a.6.6 0 0 0-.046-.175.4.4 0 0 1-.038-.13c.015-.07-.088-.012-.361.204q-.192.15-.398.283a1 1 0 0 0-.175.112q-.125.106-.273.178a.5.5 0 0 0-.075.045c-.022.026-.11.081-.35.211-.102.056-.18.112-.18.127s-.031.037-.066.053c-.076.021-.155.07-.341.196a.4.4 0 0 1-.159.086c-.023 0-.042.011-.042.03 0 .015-.068.059-.152.097-.083.04-.151.085-.151.104 0 .015-.016.03-.035.03-.037 0-.86.502-.951.576-.03.03-.069.052-.084.052q-.122.06-.235.134a1 1 0 0 1-.274.13q-.056.003-.041.026c.015.01-.008.041-.046.063q-.272.15-.535.317a2.3 2.3 0 0 1-.36.227c-.022 0-.405.234-.614.376a1 1 0 0 1-.175.107c-.007 0-.144.075-.299.168a1.8 1.8 0 0 1-.33.167c-.023 0-.041.011-.041.03 0 .015-.099.082-.217.148a10 10 0 0 0-.372.216q-.102.061-.208.116-.09.043-.17.1c-.062.044-.176.108-.248.15a1 1 0 0 0-.152.092c-.015.022-.3.201-.56.357-.039.022-.14.09-.236.153-.095.06-.334.201-.53.312a4 4 0 0 0-.438.265.8.8 0 0 1-.17.103q-.142.06-.265.153a.55.55 0 0 1-.295.112c-.081 0-.16-.056-.335-.23-.28-.291-.356-.407-.356-.548 0-.116.06-.306.11-.338.015-.011.068-.079.117-.149.053-.07.12-.164.16-.2.037-.042.106-.128.15-.186.104-.135 1.856-1.828 2.648-2.553.3-.275.71-.655.907-.84.202-.187.417-.377.481-.429.07-.048.33-.279.588-.509.854-.759 1.597-1.384 1.651-1.384.019 0 .065-.034.11-.075.136-.13.35-.297.379-.297.02 0 .056-.026.091-.056.102-.1.515-.38.682-.46.145-.076.179-.154.073-.154a.4.4 0 0 1-.16-.085 3 3 0 0 0-.258-.157c-.079-.04-.143-.085-.143-.1 0-.02-.027-.03-.058-.03a.09.09 0 0 1-.079-.055c-.015-.03-.049-.056-.084-.056a.44.44 0 0 1-.181-.093.6.6 0 0 0-.168-.093c-.021 0-.049-.026-.06-.056-.015-.03-.046-.056-.076-.056a.8.8 0 0 1-.232-.123 8 8 0 0 0-.428-.268 3 3 0 0 1-.265-.163c-.023-.027-.107-.022-.228.01-.106.031-.8.71-1.48 1.452-.239.264-.466.506-.508.54-.189.163-.22.204-.16.244.031.019.088.06.134.09.09.063.14.182.17.405l.022.157-.333.328a7 7 0 0 1-.516.453 8 8 0 0 0-.473.371c-.05.042-.114.076-.141.076a.11.11 0 0 0-.08.051c-.045.071-.85.443-1.217.558-.36.116-.478.097-.595-.1-.054-.09-.08-.104-.167-.078a1 1 0 0 1-.175.033c-.042 0-.151.026-.246.052-.126.037-.277.04-.588.019-.667-.048-.702-.044-.891.09-.224.152-.528.174-.733.048a.84.84 0 0 1-.371-.447c-.077-.242.015-.997.144-1.186.042-.068.05-.153.034-.336a6 6 0 0 1-.019-.341.8.8 0 0 0-.046-.197l-.045-.105-.595.026c-.588.027-.596.027-.676-.06a.33.33 0 0 1-.083-.227.8.8 0 0 0-.038-.233l-.034-.093-.209.07q-.17.056-.334.126c-.15.071-.59.209-.66.209-.03 0-.053.018-.053.037 0 .022-.03.037-.068.037s-.084.011-.098.03a.2.2 0 0 1-.055.03.6.6 0 0 0-.101.03c-.232.085-.201.077-.341.115a.7.7 0 0 0-.152.055c-.019.02-.208.086-.418.15-.207.066-.393.13-.416.142q-.215.09-.438.16-.265.09-.53.185a5 5 0 0 0-.19.063c-.09.03-.09.03-.17.06a6 6 0 0 0-.372.149.8.8 0 0 1-.201.059c-.03 0-.148.041-.258.09-.11.052-.277.11-.367.134q-.21.063-.413.144a5 5 0 0 1-.285.115 7 7 0 0 0-.474.157q-.226.075-.448.163a.7.7 0 0 1-.197.053c-.042 0-.077.018-.077.037 0 .022-.026.037-.056.037a.3.3 0 0 0-.125.033 3.3 3.3 0 0 1-.596.19c-.03 0-.057.01-.057.03 0 .015-.065.044-.14.07a3 3 0 0 0-.259.09q-.075.03-.15.055a18 18 0 0 0-1.017.369 1 1 0 0 1-.243.078c-.153.026-.66.276-.918.446q-.111.075-.227.145a3 3 0 0 0-.258.216c-.278.25-.49.335-.884.353-.414.019-.698.11-1.006.31-.64.423-.77.469-1.32.494-.245.008-.466.033-.491.053-.047.037-.092.043-.577.119a3 3 0 0 0-.383.077c-.145.042-.801.045-.827 0a.3.3 0 0 0-.134-.051c-.117-.026-.269-.22-.269-.35a.18.18 0 0 0-.056-.123c-.034-.026-.057-.108-.057-.201 0-.134.021-.178.164-.31q.285-.273.776-.553c.251-.142.293-.227.178-.371a.3.3 0 0 1-.057-.134.2.2 0 0 0-.045-.113.8.8 0 0 1-.113-.189 9 9 0 0 1-.134-.275 1 1 0 0 0-.087-.16 3 3 0 0 1-.143-.295c-.15-.33-.165-.595-.046-.71.102-.1.03-.097-.25.015-.506.205-1.203.614-1.837 1.082a1 1 0 0 1-.197.127.3.3 0 0 0-.095.063c-.037.033-.23.175-.428.317-.197.14-.38.27-.403.29-.018.015-.075.047-.117.074a1 1 0 0 0-.133.09q-.091.074-.194.133a2 2 0 0 0-.189.127 2 2 0 0 1-.216.156 3 3 0 0 0-.19.13 2 2 0 0 1-.19.13 4 4 0 0 0-.242.175 1 1 0 0 1-.197.122.4.4 0 0 0-.136.087 1.5 1.5 0 0 1-.278.204c-.143.097-.333.224-.416.287a2 2 0 0 1-.236.149c-.05.018-.087.051-.087.074 0 .019-.023.037-.053.037a.2.2 0 0 0-.107.048c-.056.053-1.278.856-1.338.878a.2.2 0 0 0-.057.04c-.011.011-.3.19-.645.392-.346.205-.634.38-.645.39a5.5 5.5 0 0 1-.724.428.3.3 0 0 0-.11.052c-.03.037-.35.18-.513.227a2 2 0 0 0-.215.079c-.088.043-.323.043-.35 0m17.076-6.473c.008-.019.11-.064.235-.1.232-.075.342-.18.27-.25-.053-.052-.053-.182 0-.298.026-.059.106-.108.254-.156q.158-.048.311-.112c.072-.007.591-.19.6-.212.007-.018.044-.03.079-.03.037 0 .08-.011.094-.025.01-.016.046-.03.073-.034.045-.008.219-.071.72-.25.14-.052.326-.104.406-.12a.4.4 0 0 0 .178-.061q.024-.044-.106-.011-.236.051-.477.077c-.092.015-.164.037-.164.053 0 .015-.136.04-.303.055s-.315.04-.327.06c-.01.019-.068.033-.125.033a.8.8 0 0 0-.216.037q-.195.05-.394.075c-.156.018-.327.044-.38.052-.052.01-.17.026-.264.041q-.127.015-.247.055c-.091.041-.338.075-.501.075-.066 0-.13.015-.144.038-.011.018-.057.037-.099.037-.038 0-.072.014-.072.032 0 .034.015.064.204.436.099.194.13.44.062.48a.09.09 0 0 0-.039.063c0 .05.353.008.372-.04m25.974-3.275q.11-.06.232-.093c.211-.066.239-.103.239-.316 0-.104-.028-.164-.114-.245-.061-.06-.115-.131-.115-.156 0-.026-.015-.048-.03-.048-.05 0-.228-.339-.272-.521-.023-.093-.07-.268-.099-.391-.03-.122-.076-.29-.095-.371q-.098-.417-.164-.838a3 3 0 0 1-.041-.279 1.4 1.4 0 0 0-.057-.26 2.6 2.6 0 0 1-.083-.577c0-.052-.011-.108-.03-.13a1.5 1.5 0 0 1-.058-.346c-.015-.168-.041-.317-.06-.328S61 52.722 61 52.61c0-.111-.018-.213-.041-.224-.05-.032-.306.138-.512.336a1.4 1.4 0 0 1-.451.308q-.234.144-.398.365a10 10 0 0 1-.498.587q-.288.316-.565.645c-.022.026-.038.096-.038.159 0 .148-.152.436-.33.625-.083.09-.053.145.133.253.099.056.186.111.197.127.023.026.557.368.588.371.008.005.232.145.493.32.266.172.497.313.516.313.023 0 .083.041.141.093q.1.086.215.146.102.051.19.122c.042.037.145.1.228.142q.1.048.189.115c.023.026.141.097.26.164.116.063.214.133.214.152 0 .044.202.044.252 0m-3.558-11.364c.098-.052.242-.105.264-.097.005 0 .062-.026.122-.056.065-.032.133-.048.153-.037.09.056.382-.182.625-.505.041-.056.178-.224.306-.376.126-.153.262-.324.304-.383.072-.108.072-.108-.003-.079a.8.8 0 0 1-.164.05c-.044.01-.094.032-.105.05s-.054.034-.092.034c-.065 0-.277.183-1.167.994-.358.323-.467.457-.383.457a.4.4 0 0 0 .14-.052m3.131-4.38-.056-.255a7 7 0 0 0-.077-.372 7 7 0 0 1-.052-.298.5.5 0 0 0-.03-.149 3 3 0 0 1-.062-.334 7 7 0 0 0-.079-.465 6 6 0 0 1-.087-.546c-.023-.203-.054-.365-.072-.365-.016 0-.031-.064-.031-.139 0-.078-.01-.204-.026-.282-.02-.12-.035-.137-.103-.13-.046.007-.076.036-.068.067.007.025.019.138.03.238.007.104.035.297.053.431.019.134.057.413.083.625.023.208.057.38.077.38.015 0 .03.07.033.16 0 .153.027.32.114.688.022.097.06.323.084.51.041.294.056.338.14.379.114.056.163 0 .13-.142Z"/><path fill="#fff" fill-rule="evenodd" d="M71.588 30.146a3 3 0 0 1-.452-.062 1 1 0 0 0-.273-.037 1.5 1.5 0 0 1-.316-.038 10 10 0 0 0-.773-.093 24 24 0 0 1-.842-.092 48 48 0 0 0-1.705-.196c-.258-.023-.498-.067-.527-.093-.034-.026-.072-.116-.087-.206l-.022-.106a1 1 0 0 0-.04-.154l-.028-.099a4 4 0 0 0-.152-.465 2 2 0 0 1-.08-.296l-.018-.086-.033-.155a2 2 0 0 0-.095-.279 3 3 0 0 1-.149-.523c0-.026-.041-.171-.09-.32a3 3 0 0 1-.119-.419.6.6 0 0 0-.052-.186.5.5 0 0 1-.053-.166 2 2 0 0 0-.056-.205 2.7 2.7 0 0 1-.153-.541c0-.041-.015-.071-.03-.071-.016 0-.034-.04-.038-.089a2 2 0 0 0-.1-.368 4 4 0 0 1-.131-.475 2.5 2.5 0 0 0-.154-.498 2 2 0 0 1-.072-.24l-.034-.149-.018-.074-.04-.139-.087-.288q-.076-.24-.142-.483l-.033-.13-.035-.13a1 1 0 0 0-.055-.171 3 3 0 0 1-.112-.39 7 7 0 0 0-.113-.404 2.7 2.7 0 0 1-.152-.542c0-.037-.016-.078-.038-.089-.019-.01-.038-.052-.038-.089s-.033-.175-.075-.304a4 4 0 0 1-.09-.293 1 1 0 0 0-.033-.112 2 2 0 0 1-.049-.167l-.033-.13-.033-.16c-.02-.074-.046-.148-.065-.159-.02-.01-.033-.06-.033-.108s-.015-.096-.038-.112c-.019-.01-.022-.047-.011-.077.01-.033.008-.07-.011-.086q-.05-.028-.152-.534c-.012-.056-.035-.1-.05-.1-.02 0-.044-.093-.056-.205-.015-.111-.045-.204-.063-.204s-.03-.03-.026-.063a.3.3 0 0 0-.016-.122c-.075-.183-.172-.535-.157-.561.011-.015.004-.037-.02-.052-.018-.01-.036-.06-.036-.108 0-.043-.011-.096-.026-.11-.016-.011-.03-.049-.033-.08a14 14 0 0 0-.221-.774 1.3 1.3 0 0 1-.057-.241.2.2 0 0 0-.03-.098c-.052-.066-.179-.519-.164-.583q.002-.027-.033-.029c-.02 0-.034-.03-.031-.067.01-.062-.019-.181-.078-.323a3 3 0 0 1-.15-.523 2 2 0 0 0-.09-.32c-.11-.32-.258-.882-.24-.902a9 9 0 0 1 .555.045c.298.03.61.06.691.066.24.016.546.057.749.098.104.018.363.052.58.07q.796.077 1.59.186l.103.013c.17.022.43.055.643.079.27.03.577.067.69.082l.021.003c.067.011.11.016.142.038.06.04.086.132.158.396l.01.038.05.167.022.075c.015.052.022.108.015.125a.07.07 0 0 0 .022.056c.02.011.053.109.076.208.022.104.059.245.082.316.041.145.146.535.172.65.026.11.135.47.168.56.015.04.049.175.076.297.022.119.074.312.11.424.038.111.084.262.099.334l.01.055c.022.094.023.1.072.279.026.092.086.3.138.463q.08.27.15.539c.004.01.019.078.033.148s.041.163.06.204c.044.112.141.465.172.627.015.078.057.23.094.336.041.102.081.266.093.363.016.096.042.166.06.155.016-.01.03-.007.022.011-.01.045.049.353.083.42.044.09.104.3.134.465a.5.5 0 0 0 .053.185c.014.021.04.11.056.204q.014.106.056.204a.4.4 0 0 1 .048.13l.017.07.021.097c.097.371.146.573.164.65.01.051.035.11.049.129a.7.7 0 0 1 .052.178c.03.16.087.179.12.046.01-.053.034-.093.049-.093s.086-.112.157-.249c.067-.14.138-.26.152-.271.012-.011.072-.112.132-.223s.15-.27.202-.352c.101-.164.158-.26.337-.606.071-.126.134-.23.15-.23a.5.5 0 0 0 .093-.167c.037-.093.082-.167.097-.167.016 0 .03-.019.03-.041 0-.026.076-.167.169-.322q.096-.148.167-.309c0-.018.02-.033.038-.033.022 0 .038-.022.038-.044 0-.026.087-.186.187-.357.104-.171.187-.331.187-.36 0-.026.014-.056.03-.063.032-.01.53-.858.53-.895 0-.01.053-.097.112-.186a1 1 0 0 0 .112-.19c0-.011.065-.126.143-.251a7 7 0 0 0 .188-.327c.092-.186.313-.576.34-.594.01-.011.06-.093.108-.185a9 9 0 0 1 .206-.378l.8-1.385c.026-.041.087-.157.13-.253.083-.171.091-.174.218-.152a3 3 0 0 0 .28.04q.732.067 1.46.16l.104.013c.17.022.43.055.644.08.819.092 1.41.162 1.664.2.135.019.423.055.647.081.243.027.4.06.397.087a.4.4 0 0 1-.076.151q-.06.101-.115.206a5 5 0 0 1-.18.314l-.206.36c-.041.078-.086.14-.101.14-.019 0-.03.02-.03.042 0 .033-.396.74-.599 1.073a21 21 0 0 0-.246.427 5 5 0 0 1-.261.43c-.03.03-.052.075-.052.094 0 .021-.11.215-.24.433-.13.22-.277.476-.326.573a.7.7 0 0 1-.115.188c-.019.008-.03.038-.03.064 0 .03-.023.074-.049.1a1 1 0 0 0-.116.196 1 1 0 0 1-.098.168c-.014.01-.082.119-.15.241q-.125.236-.261.465-.136.228-.261.463a2 2 0 0 1-.15.242q-.07.094-.116.2c-.142.285-.162.319-.19.319-.02 0-.031.021-.031.048 0 .022-.127.264-.284.528-.158.267-.337.575-.396.686-.064.112-.128.211-.146.216-.02.007-.034.036-.034.067a1 1 0 0 1-.127.244c-.068.108-.153.26-.188.335a.8.8 0 0 1-.12.182c-.029.021-.052.055-.052.07 0 .018-.1.204-.224.42-.123.21-.225.404-.225.43 0 .021-.014.04-.03.04-.014 0-.086.112-.156.25-.072.137-.15.27-.176.297a2 2 0 0 0-.128.233.7.7 0 0 1-.109.186c-.014 0-.054.07-.096.16a2 2 0 0 1-.146.266 3 3 0 0 0-.146.243 1.5 1.5 0 0 1-.172.296 5 5 0 0 0-.24.434c-.021.049-.052.087-.067.087-.018 0-.03.017-.03.04s-.082.178-.187.352l-.08.138c-.062.108-.107.183-.107.189 0 .026-.385.676-.434.732a.2.2 0 0 0-.052.1c0 .02-.067.144-.15.27-.08.127-.15.25-.15.268a.4.4 0 0 1-.085.152 1 1 0 0 0-.11.174c-.032.087-.11.093-.496.06Zm-40.584.527a7 7 0 0 1-.055-.404 48 48 0 0 0-.12-.931l-.011-.09-.052-.452-.005-.03a20 20 0 0 1-.055-.502c-.038-.416-.065-.616-.094-.686a3 3 0 0 1-.07-.502 34 34 0 0 0-.196-1.632q-.047-.352-.09-.706a75 75 0 0 0-.21-1.652 6 6 0 0 1-.052-.427c-.014-.2-.12-1.076-.172-1.41a26 26 0 0 1-.081-.688 5 5 0 0 0-.072-.5 5 5 0 0 1-.064-.502q-.034-.344-.081-.687-.05-.352-.09-.704l-.077-.627c-.08-.642-.099-.806-.13-1.025a17 17 0 0 1-.055-.446q-.059-.62-.153-1.236c-.022-.112-.02-.12.082-.123.127-.003.569-.052.931-.108.145-.021.463-.06.71-.08.248-.022.457-.053.47-.068a.6.6 0 0 1 .184-.026c.095 0 .304-.018.469-.044.164-.022.5-.067.748-.098.85-.096 1.422-.17 1.645-.203a75 75 0 0 1 1.666-.205c.664-.077.942-.115 1.028-.14a8 8 0 0 1 .636-.063c.31-.026.595-.052.635-.063.094-.026.438-.076 1.01-.14 1.418-.168 1.766-.214 2.001-.258a6 6 0 0 1 .494-.052l.36-.03.021.152c.027.153.098.761.184 1.54.026.236.06.455.07.484.012.03.042.249.068.482a59 59 0 0 0 .131 1.211v.003c.026.19.026.19-.58.257-.258.029-.568.07-.691.088-.21.03-1.093.134-1.422.168a10 10 0 0 0-.43.055c-.153.022-.483.064-.73.09a6 6 0 0 0-.504.066 6 6 0 0 1-.505.064q-.347.033-.692.08c-.319.05-1.063.135-1.627.194-.415.041-.449.049-.438.119.03.174.083.552.139 1.02.13 1.093.164 1.363.19 1.5l.022.14.214-.021c.116-.015.411-.049.659-.075a9 9 0 0 0 .467-.058.8.8 0 0 1 .169-.02c.082-.003.283-.029.449-.051a70 70 0 0 1 1.683-.208c.269-.03.594-.07.73-.093.23-.032.657-.085 1.663-.204a9 9 0 0 0 .55-.074q.047-.015.073-.008c.04.016.051.105.087.398.011.093.038.267.057.389.018.123.06.45.093.724.12.976.168 1.359.202 1.615.068.476.112.817.117.876a.1.1 0 0 1-.004.03c-.016.042-.12.054-.782.129-.868.105-1.44.175-1.684.209-.134.021-.452.059-.71.088a5 5 0 0 0-.469.06c0 .004-.081.01-.185.02q-.225.019-.45.051-.793.11-1.59.19a6 6 0 0 0-.605.08l-.218.046v.17c0 .097.011.185.03.2.016.016.05.242.076.498l.03.311.033.328.017.182.021.225c.014.134.037.275.055.316.02.041.042.16.053.26l.075.706c.033.285.067.594.075.686.033.35.064.58.098.705.018.071.04.216.047.324l.016.188-.191.023c-.104.01-.4.041-.658.063-.258.026-.475.056-.487.071-.01.014-.22.04-.467.055s-.464.041-.486.056a1 1 0 0 1-.244.052c-.112.011-.434.044-.71.078l-.935.108a4 4 0 0 0-.487.066c-.03.015-.163.034-.298.045q-.173.012-.345.044c-.072.015-.109.006-.124-.026m14.35-4.003c.018.683.032 1.491.032 1.796v.554l1.583-.026c.762-.01 1.808-.028 2.48-.04l.254-.005 1.156-.025-.022-1.96-.02-1.96 1.594-.02c.879-.006 1.724-.032 1.878-.055l.288-.037.329-.04a2.4 2.4 0 0 0 .411-.075 1.2 1.2 0 0 1 .27-.056c.108-.015.205-.04.22-.059.011-.018.06-.034.11-.034.047 0 .095-.015.107-.033a.5.5 0 0 1 .183-.06c.15-.026.255-.062.55-.196.071-.03.15-.06.176-.067a9 9 0 0 0 .703-.342c.064-.032.254-.162.426-.285.173-.123.35-.246.393-.275.337-.227 1.11-1.132 1.306-1.526.044-.092.09-.175.101-.185.033-.034.15-.264.15-.301 0-.018.04-.119.093-.223.049-.108.082-.205.075-.222-.01-.015-.004-.038.019-.052.018-.011.037-.064.037-.116 0-.047.018-.089.044-.089.022 0 .034-.007.022-.018s.009-.134.035-.271l.054-.268c.017-.076.031-.149.044-.204.051-.293.051-1.685 0-1.949a9 9 0 0 1-.083-.39l-.03-.134-.026-.126-.06-.24a.5.5 0 0 0-.079-.2.15.15 0 0 1-.032-.09c0-.048-.024-.104-.163-.416-.224-.505-.773-1.27-1.154-1.615a6.5 6.5 0 0 0-1.55-1.057 1.5 1.5 0 0 1-.217-.09c-.228-.108-.328-.148-.366-.14q-.03.003-.03-.027c0-.019-.075-.045-.169-.056-.092-.015-.167-.037-.167-.052 0-.032-.225-.103-.43-.137a1 1 0 0 1-.207-.049c-.052-.018-.217-.052-.785-.159a10 10 0 0 0-.449-.063c-.28-.03-6.426-.033-8.075-.007l-1.096.019.026 6.254c.011 3.441.037 6.816.06 7.499Zm8.31-5.97c-.034.027-.374.053-.976.071-.51.015-1.149.03-1.418.03l-.497.004v-1.59c0-.875-.011-1.719-.022-1.873l-.027-.287h1.275c1.32 0 1.407.008 1.93.175.191.059.232.085.502.327.367.326.527.749.531 1.384 0 .23-.015.446-.034.483a2 2 0 0 0-.098.267 1.3 1.3 0 0 1-.115.264.2.2 0 0 0-.052.08c0 .016-.082.105-.18.206-.163.162-.703.478-.748.434-.011-.008-.04 0-.071.026" clip-rule="evenodd"/><path fill="#0B64D0" d="M13.905 43.493c-.938-.005-2.186-.133-3.051-.425s-1.74-.529-2.402-1.064a6.2 6.2 0 0 1-1.587-1.985c-.43-1.851.13-1.743.134-2.496s-.018-1.291.345-1.985a5.8 5.8 0 0 1 1.556-1.85 7.5 7.5 0 0 1 2.323-1.231 8.7 8.7 0 0 1 2.735-.424l-.027 5.73z"/><path fill="url(#a)" fill-opacity=".2" d="M13.905 43.493c-.938-.005-2.186-.133-3.051-.425s-1.74-.529-2.402-1.064a6.2 6.2 0 0 1-1.587-1.985c-.43-1.851.13-1.743.134-2.496s-.018-1.291.345-1.985a5.8 5.8 0 0 1 1.556-1.85 7.5 7.5 0 0 1 2.323-1.231 8.7 8.7 0 0 1 2.735-.424l-.027 5.73z" style="mix-blend-mode:hard-light"/><path fill="#1D83F9" d="M44.483 43.45c.492-.144.86-.637.853-1.15l-.099-7.072c-.01-.665-.653-1.132-1.308-1.014-2.784.5-8.574.388-17.839-6.742-6.085-3.949-14.51-4.863-19.217.944a.86.86 0 0 0-.186.532l-.002.487c-.033 7.415-.046 10.432.065 10.023 1.594-5.838 11.817-6.52 20.354-1.236 10.687 6.614 15.46 5.787 17.379 5.227Z"/><path fill="url(#b)" fill-opacity=".2" d="M44.483 43.45c.492-.144.86-.637.853-1.15l-.099-7.072c-.01-.665-.653-1.132-1.308-1.014-2.784.5-8.574.388-17.839-6.742-6.085-3.949-14.51-4.863-19.217.944a.86.86 0 0 0-.186.532l-.002.487c-.033 7.415-.046 10.432.065 10.023 1.594-5.838 11.817-6.52 20.354-1.236 10.687 6.614 15.46 5.787 17.379 5.227Z" style="mix-blend-mode:hard-light"/><path fill="#DD9F0D" d="M14.094 55.225c-.938-.004-2.186-.132-3.05-.424-.866-.292-1.741-.529-2.402-1.064-.71-.575-1.184-1.17-1.54-1.867-.503-1.931-.126-1.656-.123-2.409a4.8 4.8 0 0 1 .554-2.19 5.8 5.8 0 0 1 1.557-1.852 7.5 7.5 0 0 1 2.323-1.231 8.7 8.7 0 0 1 2.735-.423l-.027 5.73z"/><path fill="url(#c)" fill-opacity=".2" d="M14.094 55.225c-.938-.004-2.186-.132-3.05-.424-.866-.292-1.741-.529-2.402-1.064-.71-.575-1.184-1.17-1.54-1.867-.503-1.931-.126-1.656-.123-2.409a4.8 4.8 0 0 1 .554-2.19 5.8 5.8 0 0 1 1.557-1.852 7.5 7.5 0 0 1 2.323-1.231 8.7 8.7 0 0 1 2.735-.423l-.027 5.73z" style="mix-blend-mode:hard-light"/><path fill="#FFC42B" d="M37.756 52.81c.463-.012.778-.403.773-.866l-.075-6.58c-.006-.52-.409-.94-.92-1.028-2.152-.374-4.378-1.604-11.301-5.436-6.101-3.953-14.545-4.872-19.259.933a.85.85 0 0 0-.185.532l-.002.487c-.029 7.416-.04 10.433.071 10.025 1.594-5.839 11.407-5.746 20.397-1.225 5.712 2.873 9.088 3.196 10.501 3.159Z"/><path fill="url(#d)" fill-opacity=".2" d="M37.756 52.81c.463-.012.778-.403.773-.866l-.075-6.58c-.006-.52-.409-.94-.92-1.028-2.152-.374-4.378-1.604-11.301-5.436-6.101-3.953-14.545-4.872-19.259.933a.85.85 0 0 0-.185.532l-.002.487c-.029 7.416-.04 10.433.071 10.025 1.594-5.839 11.407-5.746 20.397-1.225 5.712 2.873 9.088 3.196 10.501 3.159Z" style="mix-blend-mode:hard-light"/><defs><linearGradient id="a" x1="15.545" x2="8.086" y1="43.305" y2="36.781" gradientUnits="userSpaceOnUse"><stop stop-color="#fff"/><stop offset="1"/></linearGradient><linearGradient id="b" x1="6.903" x2="44.772" y1="33.715" y2="32.073" gradientUnits="userSpaceOnUse"><stop offset=".088" stop-color="#00465C"/><stop offset=".306" stop-color="#fff"/><stop offset=".639" stop-color="#00465C"/><stop offset="1" stop-color="#fff"/></linearGradient><linearGradient id="c" x1="15.747" x2="8.281" y1="55.037" y2="48.459" gradientUnits="userSpaceOnUse"><stop stop-color="#fff"/><stop offset="1"/></linearGradient><linearGradient id="d" x1="6.745" x2="38.519" y1="45.062" y2="45.317" gradientUnits="userSpaceOnUse"><stop offset=".108" stop-color="#604D08"/><stop offset=".363" stop-color="#fff"/><stop offset=".759" stop-color="#604D08"/><stop offset="1" stop-color="#fff"/></linearGradient></defs></svg>